<svg xmlns="http://www.w3.org/2000/svg" viewBox="0 0 300 340" width="300" height="340">
  <defs>
    <linearGradient id="bucket-grad" x1="0" y1="0" x2="0" y2="1">
      <stop offset="0%" stop-color="#1E3158"/>
      <stop offset="100%" stop-color="#142040"/>
    </linearGradient>
    <linearGradient id="rim-grad" x1="0" y1="0" x2="1" y2="0">
      <stop offset="0%" stop-color="#F2765A"/>
      <stop offset="50%" stop-color="#F58B72"/>
      <stop offset="100%" stop-color="#F2765A"/>
    </linearGradient>
    <filter id="ds"><feDropShadow dx="0" dy="2" stdDeviation="3" flood-color="#1B2A4A" flood-opacity="0.25"/></filter>
  </defs>
  <ellipse cx="150" cy="170" rx="140" ry="160" fill="white" stroke="#E8E2DB" stroke-width="2"/>
  <g fill="#F2765A" opacity="0.6"><path d="M210,28 L212,34 L218,36 L212,38 L210,44 L208,38 L202,36 L208,34Z"/></g>
  <g fill="#B8A9D4" opacity="0.5"><circle cx="235" cy="55" r="2.5"/><circle cx="72" cy="48" r="2"/></g>
  <g fill="#6EC5B8" opacity="0.45"><circle cx="242" cy="80" r="2"/><circle cx="60" cy="75" r="1.8"/></g>
  <g stroke="#F2765A" stroke-width="1.5" stroke-linecap="round" opacity="0.18">
    <line x1="105" y1="40" x2="100" y2="18"/><line x1="195" y1="38" x2="200" y2="16"/><line x1="150" y1="30" x2="150" y2="10"/>
  </g>
  <g filter="url(#ds)">
    <g transform="translate(95,42)">
      <polygon points="25,68 45,12 65,68" fill="#B8A9D4" opacity="0.85"/>
      <polygon points="50,68 75,0 100,68" fill="#6EC5B8" opacity="0.85"/>
      <polygon points="65,14 75,0 85,14" fill="white" opacity="0.4"/>
    </g>
    <g transform="translate(200,58) rotate(14)">
      <rect x="0" y="5" width="36" height="25" rx="5" fill="#F2765A"/>
      <rect x="9" y="0" width="14" height="6" rx="2.5" fill="#E5604A"/>
      <circle cx="18" cy="17" r="7.5" fill="#1B2A4A" opacity="0.3"/>
      <circle cx="18" cy="17" r="4.5" fill="white" opacity="0.3"/>
    </g>
    <g transform="translate(130,56)">
      <circle cx="14" cy="14" r="14" fill="#6EC5B8"/>
      <ellipse cx="14" cy="14" rx="6" ry="14" fill="none" stroke="white" stroke-width="0.9" opacity="0.3"/>
      <line x1="0" y1="14" x2="28" y2="14" stroke="white" stroke-width="0.9" opacity="0.3"/>
    </g>
    <g transform="translate(52,80) rotate(-16)">
      <rect x="0" y="0" width="38" height="22" rx="3" fill="white" stroke="#B8A9D4" stroke-width="1.2"/>
      <line x1="26" y1="0" x2="26" y2="22" stroke="#B8A9D4" stroke-width="0.8" stroke-dasharray="2,2"/>
      <circle cx="9" cy="8" r="2" fill="#F2765A" opacity="0.5"/>
    </g>
    <g transform="translate(78,68)"><path d="M8,5.5 C8,2.5 6,1 4,3.2 C2,1 0,2.5 0,5.5 C0,9 4,12 4,12 C4,12 8,9 8,5.5Z" fill="#F2A7B3"/></g>
    <g transform="translate(218,90) rotate(8)"><path d="M7,0 L3,7 L6,7 L1.5,14 L11,6 L7,6Z" fill="#F2C75A" opacity="0.75"/></g>
    <g transform="translate(225,42) rotate(-28)"><path d="M0,5.5 L14,0 L10,7 L14,0 L5.5,12 L7,6.5Z" fill="#1B2A4A" opacity="0.18"/></g>
  </g>
  <g filter="url(#ds)">
    <path d="M72,140 L88,248 C92,268 106,280 128,284 L172,284 C194,280 208,268 212,248 L228,140Z" fill="url(#bucket-grad)"/>
    <rect x="62" y="128" width="176" height="16" rx="8" fill="url(#rim-grad)"/>
    <rect x="76" y="131" width="148" height="4.5" rx="2" fill="white" opacity="0.12"/>
    <g fill="none" stroke="#F2765A" stroke-width="3.5" stroke-linecap="round">
      <path d="M75,150 C60,150 58,172 74,172"/>
      <path d="M225,150 C240,150 242,172 226,172"/>
    </g>
    <text x="150" y="218" text-anchor="middle" font-family="'Rubik','Arial Black',sans-serif" font-size="42" font-weight="900" fill="white" letter-spacing="3">KICKIT</text>
    <rect x="110" y="228" width="80" height="2.5" rx="1.25" fill="#F2765A" opacity="0.5"/>
    <text x="150" y="252" text-anchor="middle" font-family="'Outfit','Helvetica',sans-serif" font-size="9" font-weight="700" fill="#B8A9D4" letter-spacing="4" opacity="0.7">BUCKET LIST APP</text>
  </g>
</svg>